<?xml version="1.0" encoding="UTF-8" standalone="no"?>
<!DOCTYPE svg PUBLIC "-//W3C//DTD SVG 1.1//EN" "http://www.w3.org/Graphics/SVG/1.1/DTD/svg11.dtd">
<svg width="100%" height="100%" viewBox="0 0 521 151" version="1.1" xmlns="http://www.w3.org/2000/svg"
     xmlns:xlink="http://www.w3.org/1999/xlink" xml:space="preserve" xmlns:serif="http://www.serif.com/"
     style="fill-rule:evenodd;clip-rule:evenodd;stroke-linejoin:round;stroke-miterlimit:2;">
    <g transform="matrix(1,0,0,1,-468,-669)">
        <path d="M476,714L480,714C480,714 476.843,723.043 495,716C513.157,708.957 517.28,692.847 518,691C518.72,689.153 519.955,685.303 516,683C512.045,680.697 511.046,682.423 519,678C526.954,673.577 526.368,673.515 531,681C535.632,688.485 547.004,696.051 551,699C554.996,701.949 571.068,709.737 583,700C594.932,690.263 601.61,674.927 603,672.917C604.39,670.906 606,671 606,671C606,671 618.471,700.558 664,721C709.529,741.442 708.546,736.49 726,737C743.454,737.51 770.289,734.974 791,723C848.593,689.702 852,669 852,669C852,669 870.678,701.642 883,704C895.322,706.358 907.797,703.725 929,678C929,678 928.062,671.844 944,680C944,680 934.625,691.427 945,702C955.375,712.573 959.042,716.639 967,717C974.958,717.361 976.141,715.924 980,714C983.859,712.076 989.082,725.46 988,726C986.918,726.54 990.706,733.124 977,734C969.276,734.494 966.075,741.645 958,748C949.925,754.355 928.208,766.4 910,769C891.792,771.6 886.869,773.024 856,765C853.314,764.302 851,762 851,762C851,762 851.997,784.585 847,792C842.003,799.415 838.132,806.328 814,812C789.868,817.672 764.482,819.438 729,819C693.518,818.562 686.903,817.564 659,813C631.097,808.436 612.178,798.001 608,788C603.822,777.999 607.114,768.343 605,764C604.11,762.171 598.738,772.326 567,771C535.262,769.674 510.44,757.3 490,739C484.304,733.901 483,733 483,733C483,733 467.787,736.714 469,727C470.213,717.286 476,714 476,714Z"
              style="fill:none;"/>
    </g>
</svg>
