<?xml version="1.0" encoding="UTF-8" standalone="no"?>
<!DOCTYPE svg PUBLIC "-//W3C//DTD SVG 1.1//EN" "http://www.w3.org/Graphics/SVG/1.1/DTD/svg11.dtd">
<svg width="100%" height="100%" viewBox="0 0 320 126" version="1.1" xmlns="http://www.w3.org/2000/svg"
     xmlns:xlink="http://www.w3.org/1999/xlink" xml:space="preserve" xmlns:serif="http://www.serif.com/"
     style="fill-rule:evenodd;clip-rule:evenodd;stroke-linejoin:round;stroke-miterlimit:2;">
    <g transform="matrix(1,0,0,1,-560,-808)">
        <path d="M606,808C606,808 581.738,818.613 568,830C554.262,841.387 562.493,839.937 567,844C571.507,848.063 605.078,865.594 606,870C606.892,874.262 611.743,911.843 615,927C615.243,928.13 644.86,932.896 664,933C680.133,933.088 688.645,932.844 711,926C713.389,925.269 718.932,893.826 720,883C720.569,877.235 720.893,877.926 722,878C726.075,878.273 726.379,882.086 730,905C734.696,934.718 734.672,927.82 760,932C774.3,934.36 802.983,933.674 822,929C834.609,925.901 831.249,930.616 836,918C840.751,905.384 841.397,873.779 842,870C842.603,866.221 851.939,858.862 868,853C884.061,847.138 879.346,840.301 877,839C874.654,837.699 855.208,820.934 852,821C848.792,821.066 836.335,828.073 827,831C817.665,833.927 783.167,841.74 756,841C728.833,840.26 696.236,837.107 676,833C655.623,828.864 616.374,820.139 606,808Z"
              style="fill:none;"/>
    </g>
</svg>
