<?xml version="1.0" encoding="UTF-8" standalone="no"?>
<!DOCTYPE svg PUBLIC "-//W3C//DTD SVG 1.1//EN" "http://www.w3.org/Graphics/SVG/1.1/DTD/svg11.dtd">
<svg class="svg-path" width="100%" height="100%" viewBox="0 0 248 413" version="1.1" xmlns="http://www.w3.org/2000/svg"
     xmlns:xlink="http://www.w3.org/1999/xlink" xml:space="preserve" xmlns:serif="http://www.serif.com/"
     style="fill-rule:evenodd;clip-rule:evenodd;stroke-linejoin:round;stroke-miterlimit:2;">
    <g transform="matrix(1,0,0,1,-1025,-80)">
        <path d="M1030,468C1030,468 1056.21,412.918 1116,406C1134.76,403.829 1193.4,401.977 1226,433C1258.6,464.023 1260,487 1260,487C1260,487 1261.02,493.256 1263,492C1264.98,490.744 1272.04,467.511 1272,461C1271.96,454.489 1275.83,391.521 1249,325C1238.66,299.355 1238,258.825 1231,239C1224,219.175 1210.73,177.198 1202,152C1192.62,124.932 1182,94 1182,94C1182,94 1179.59,80.057 1171,80C1162.41,79.943 1159.18,89.727 1156,94C1152.82,98.273 1139.12,139.533 1132,154C1124.88,168.467 1119.77,185.831 1110,200C1100.23,214.169 1092.38,239.561 1088,252C1083.62,264.439 1081.57,282.004 1074,297C1066.43,311.996 1047.37,338.951 1041,362C1034.63,385.049 1017.63,440.776 1030,468Z"
              style="fill:none;"/>
    </g>
</svg>
