<?xml version="1.0" encoding="UTF-8" standalone="no"?>
<!DOCTYPE svg PUBLIC "-//W3C//DTD SVG 1.1//EN" "http://www.w3.org/Graphics/SVG/1.1/DTD/svg11.dtd">
<svg width="100%" height="100%" viewBox="0 0 143 145" version="1.1" xmlns="http://www.w3.org/2000/svg"
     xmlns:xlink="http://www.w3.org/1999/xlink" xml:space="preserve" xmlns:serif="http://www.serif.com/"
     style="fill-rule:evenodd;clip-rule:evenodd;stroke-linejoin:round;stroke-miterlimit:2;">
    <g transform="matrix(1,0,0,1,-729,-928)">
        <g id="schuh-rechts" transform="matrix(-1,0,0,1,1448.04,0.651607)">
            <path d="M618,928C618,928 638.155,934.966 666,933C693.845,931.034 708,928 708,928C708,928 719.791,924.502 719,935C718.209,945.498 719.241,938.489 716,947C712.759,955.511 715.239,948.677 715,965C714.761,981.323 712.574,988.653 713,994C713.426,999.347 712.137,1031.04 710,1037C707.863,1042.96 685.313,1063 672,1068C658.687,1073 640.241,1071 635,1072C629.759,1073 611.412,1071.9 597,1068C582.588,1064.1 577.867,1059.47 577,1056C576.133,1052.53 578.744,1035.07 582,1029C585.256,1022.93 590.6,1014.1 599,1009C607.4,1003.9 620,996 620,996C620,996 619.819,958.73 616,950C612.181,941.27 611.597,936.971 612,932C612.403,927.029 617.369,928.529 618,928Z"
                  style="fill:none;"/>
        </g>
    </g>
</svg>
